<mxfile host="app.diagrams.net" agent="Mozilla/5.0 (Windows NT 10.0; Win64; x64) AppleWebKit/537.36 (KHTML, like Gecko) Chrome/139.0.0.0 Safari/537.36" version="28.2.0" pages="4">
  <diagram name="Page-1" id="n5Za2puiRkO5RbfMfb8y">
    <mxGraphModel grid="1" page="1" gridSize="10" guides="1" tooltips="1" connect="1" arrows="1" fold="1" pageScale="1" pageWidth="1169" pageHeight="827" math="0" shadow="0">
      <root>
        <mxCell id="0" />
        <mxCell id="1" parent="0" />
        <mxCell id="dVSCbXWbXGHuoaCVwjqC-1" value="Độc giả" style="whiteSpace=wrap;strokeWidth=1;" vertex="1" parent="1">
          <mxGeometry x="72" y="360" width="114" height="54" as="geometry" />
        </mxCell>
        <mxCell id="dVSCbXWbXGHuoaCVwjqC-3" value="Nhân viên/Thủ thư" style="whiteSpace=wrap;strokeWidth=1;" vertex="1" parent="1">
          <mxGeometry x="920" y="323" width="198" height="54" as="geometry" />
        </mxCell>
        <mxCell id="dVSCbXWbXGHuoaCVwjqC-4" value="Email/SMS Gateway" style="whiteSpace=wrap;strokeWidth=1;" vertex="1" parent="1">
          <mxGeometry x="28" y="472" width="202" height="54" as="geometry" />
        </mxCell>
        <mxCell id="dVSCbXWbXGHuoaCVwjqC-5" value="Yêu cầu đặt trước / gia hạn / xem thông báo" style="curved=0;startArrow=none;endArrow=block;exitX=1;exitY=0.35;entryX=0.085;entryY=0.225;rounded=0;entryDx=0;entryDy=0;entryPerimeter=0;fontSize=12;" edge="1" parent="1" source="dVSCbXWbXGHuoaCVwjqC-1" target="dVSCbXWbXGHuoaCVwjqC-10">
          <mxGeometry x="0.1689" y="22" relative="1" as="geometry">
            <Array as="points" />
            <mxPoint x="477" y="388.4" as="targetPoint" />
            <mxPoint as="offset" />
          </mxGeometry>
        </mxCell>
        <mxCell id="dVSCbXWbXGHuoaCVwjqC-6" value="Tạo phiếu mượn / Trả sách / Lập phạt / Biên bản" style="curved=0;startArrow=none;endArrow=block;entryX=0.963;entryY=0.738;rounded=0;entryDx=0;entryDy=0;entryPerimeter=0;exitX=0;exitY=0.5;exitDx=0;exitDy=0;fontSize=12;" edge="1" parent="1" source="dVSCbXWbXGHuoaCVwjqC-3" target="dVSCbXWbXGHuoaCVwjqC-10">
          <mxGeometry x="-0.056" y="32" relative="1" as="geometry">
            <Array as="points">
              <mxPoint x="820" y="430" />
            </Array>
            <mxPoint x="930" y="440" as="sourcePoint" />
            <mxPoint x="692" y="441.20000000000005" as="targetPoint" />
            <mxPoint as="offset" />
          </mxGeometry>
        </mxCell>
        <mxCell id="dVSCbXWbXGHuoaCVwjqC-7" value="Phiếu mượn / Phiếu trả / Biên bản xử lý" style="curved=0;startArrow=none;endArrow=block;exitX=1;exitY=0.5;entryX=0;entryY=0.25;rounded=0;exitDx=0;exitDy=0;entryDx=0;entryDy=0;fontSize=12;" edge="1" parent="1" source="dVSCbXWbXGHuoaCVwjqC-10" target="dVSCbXWbXGHuoaCVwjqC-3">
          <mxGeometry x="-0.2553" y="49" relative="1" as="geometry">
            <Array as="points" />
            <mxPoint x="692" y="412.6" as="sourcePoint" />
            <mxPoint as="offset" />
          </mxGeometry>
        </mxCell>
        <mxCell id="dVSCbXWbXGHuoaCVwjqC-8" value="Thông báo sắp hạn / quá hạn / giữ chỗ" style="curved=0;startArrow=none;endArrow=block;exitX=0;exitY=0.5;entryX=1;entryY=0.64;rounded=0;exitDx=0;exitDy=0;fontSize=12;" edge="1" parent="1" source="dVSCbXWbXGHuoaCVwjqC-10" target="dVSCbXWbXGHuoaCVwjqC-1">
          <mxGeometry y="22" relative="1" as="geometry">
            <Array as="points" />
            <mxPoint x="477" y="417" as="sourcePoint" />
            <mxPoint as="offset" />
          </mxGeometry>
        </mxCell>
        <mxCell id="dVSCbXWbXGHuoaCVwjqC-9" value="Gửi thông báo / Trạng thái gửi" style="curved=0;startArrow=block;endArrow=block;exitX=1;exitY=0.5;entryX=0;entryY=1;rounded=0;entryDx=0;entryDy=0;fontSize=12;" edge="1" parent="1" source="dVSCbXWbXGHuoaCVwjqC-4" target="dVSCbXWbXGHuoaCVwjqC-10">
          <mxGeometry x="0.0786" y="-31" relative="1" as="geometry">
            <Array as="points">
              <mxPoint x="370" y="480" />
            </Array>
            <mxPoint x="477" y="455.5" as="targetPoint" />
            <mxPoint as="offset" />
          </mxGeometry>
        </mxCell>
        <mxCell id="dVSCbXWbXGHuoaCVwjqC-10" value="Mượn–Trả–Đặt trước" style="ellipse;whiteSpace=wrap;html=1;" vertex="1" parent="1">
          <mxGeometry x="438" y="377" width="270" height="80" as="geometry" />
        </mxCell>
      </root>
    </mxGraphModel>
  </diagram>
  <diagram id="AKoRcPZ5IiFd1nfCHql0" name="Page-2">
    <mxGraphModel grid="1" page="1" gridSize="10" guides="1" tooltips="1" connect="1" arrows="1" fold="1" pageScale="1" pageWidth="1169" pageHeight="827" math="0" shadow="0">
      <root>
        <mxCell id="0" />
        <mxCell id="1" parent="0" />
        <mxCell id="lSp0MBB10NhTm89IjjH6-1" value="Quản lý" style="whiteSpace=wrap;strokeWidth=1;" vertex="1" parent="1">
          <mxGeometry x="230" y="308" width="115" height="54" as="geometry" />
        </mxCell>
        <mxCell id="lSp0MBB10NhTm89IjjH6-6" value="&lt;font style=&quot;font-size: 12px;&quot;&gt;Thống kê kê và báo cáo&lt;/font&gt;" style="ellipse;whiteSpace=wrap;html=1;fontFamily=Helvetica;fontSize=11;fontColor=default;labelBackgroundColor=default;" vertex="1" parent="1">
          <mxGeometry x="660" y="295" width="230" height="80" as="geometry" />
        </mxCell>
        <mxCell id="zYf2IRXKNL90GcMxh7p9-2" value="" style="endArrow=classic;html=1;rounded=1;strokeColor=default;align=center;verticalAlign=middle;fontFamily=Helvetica;fontSize=11;fontColor=default;labelBackgroundColor=default;curved=0;exitX=1;exitY=0.25;exitDx=0;exitDy=0;entryX=0.035;entryY=0.363;entryDx=0;entryDy=0;entryPerimeter=0;" edge="1" parent="1" source="lSp0MBB10NhTm89IjjH6-1" target="lSp0MBB10NhTm89IjjH6-6">
          <mxGeometry width="50" height="50" relative="1" as="geometry">
            <mxPoint x="560" y="430" as="sourcePoint" />
            <mxPoint x="610" y="380" as="targetPoint" />
          </mxGeometry>
        </mxCell>
        <mxCell id="Bi6nGAj8G7SYcbj5-KhT-1" value="&lt;font style=&quot;font-size: 12px;&quot;&gt;Tham số lọc / Yêu cầu lập báo cáo&lt;/font&gt;" style="edgeLabel;html=1;align=center;verticalAlign=middle;resizable=0;points=[];fontFamily=Helvetica;fontSize=11;fontColor=default;labelBackgroundColor=default;" connectable="0" vertex="1" parent="zYf2IRXKNL90GcMxh7p9-2">
          <mxGeometry x="0.1145" y="-3" relative="1" as="geometry">
            <mxPoint x="-5" y="-18" as="offset" />
          </mxGeometry>
        </mxCell>
        <mxCell id="zYf2IRXKNL90GcMxh7p9-3" value="Báo cáo PDF/Excel/CSV, Dashboard" style="endArrow=classic;html=1;rounded=1;strokeColor=default;align=center;verticalAlign=middle;fontFamily=Helvetica;fontSize=12;fontColor=default;labelBackgroundColor=default;curved=0;exitX=0.043;exitY=0.688;exitDx=0;exitDy=0;exitPerimeter=0;entryX=1;entryY=0.75;entryDx=0;entryDy=0;" edge="1" parent="1" source="lSp0MBB10NhTm89IjjH6-6" target="lSp0MBB10NhTm89IjjH6-1">
          <mxGeometry x="-0.0163" y="21" width="50" height="50" relative="1" as="geometry">
            <mxPoint x="560" y="430" as="sourcePoint" />
            <mxPoint x="610" y="380" as="targetPoint" />
            <mxPoint as="offset" />
          </mxGeometry>
        </mxCell>
      </root>
    </mxGraphModel>
  </diagram>
  <diagram id="54FAHZCDsIFo-YKqYLOJ" name="Page-5">
    <mxGraphModel grid="1" page="1" gridSize="10" guides="1" tooltips="1" connect="1" arrows="1" fold="1" pageScale="1" pageWidth="1169" pageHeight="827" math="0" shadow="0">
      <root>
        <mxCell id="0" />
        <mxCell id="1" parent="0" />
        <mxCell id="-Xd9OIVtBkkgdigE_KGQ-1" value="Độc giả" style="whiteSpace=wrap;strokeWidth=1;" vertex="1" parent="1">
          <mxGeometry x="1408" y="712" width="114" height="54" as="geometry" />
        </mxCell>
        <mxCell id="-Xd9OIVtBkkgdigE_KGQ-2" value="Thủ thư" style="whiteSpace=wrap;strokeWidth=1;" vertex="1" parent="1">
          <mxGeometry x="1011" y="90" width="119" height="54" as="geometry" />
        </mxCell>
        <mxCell id="-Xd9OIVtBkkgdigE_KGQ-3" value="Email/SMS Gateway" style="whiteSpace=wrap;strokeWidth=1;" vertex="1" parent="1">
          <mxGeometry x="1136" y="1292" width="202" height="54" as="geometry" />
        </mxCell>
        <mxCell id="-Xd9OIVtBkkgdigE_KGQ-15" value="Đặt trước/Hủy" style="startArrow=none;endArrow=block;exitX=0.369;exitY=1.016;entryX=1;entryY=0.5;rounded=0;entryDx=0;entryDy=0;exitDx=0;exitDy=0;exitPerimeter=0;" edge="1" parent="1" source="-Xd9OIVtBkkgdigE_KGQ-1" target="ajGllMVICAQ2R9X1l5JS-7">
          <mxGeometry x="-0.1129" y="23" relative="1" as="geometry">
            <Array as="points">
              <mxPoint x="1430" y="877" />
            </Array>
            <mxPoint x="1043" y="855.5400000000002" as="targetPoint" />
            <mxPoint as="offset" />
          </mxGeometry>
        </mxCell>
        <mxCell id="-Xd9OIVtBkkgdigE_KGQ-16" value="Yêu cầu mượn (mã độc giả, mã sách)" style="startArrow=none;endArrow=block;exitX=0;exitY=0.5;entryX=0.5;entryY=0;rounded=0;entryDx=0;entryDy=0;exitDx=0;exitDy=0;" edge="1" parent="1" source="-Xd9OIVtBkkgdigE_KGQ-2" target="N-EmkDtuApi2RjCXlueM-13">
          <mxGeometry x="0.1075" y="-37" relative="1" as="geometry">
            <Array as="points">
              <mxPoint x="800" y="157" />
            </Array>
            <mxPoint x="613.5" y="247" as="targetPoint" />
            <mxPoint as="offset" />
          </mxGeometry>
        </mxCell>
        <mxCell id="-Xd9OIVtBkkgdigE_KGQ-17" value="Trả sách (mã cuốn)" style="startArrow=none;endArrow=block;exitX=0.2;exitY=1.027;entryX=0.065;entryY=0.242;rounded=0;entryDx=0;entryDy=0;entryPerimeter=0;exitDx=0;exitDy=0;exitPerimeter=0;" edge="1" parent="1" source="-Xd9OIVtBkkgdigE_KGQ-2" target="ajGllMVICAQ2R9X1l5JS-6">
          <mxGeometry relative="1" as="geometry">
            <Array as="points">
              <mxPoint x="1013" y="397" />
            </Array>
            <mxPoint x="1118" y="563.96" as="targetPoint" />
          </mxGeometry>
        </mxCell>
        <mxCell id="-Xd9OIVtBkkgdigE_KGQ-18" value="Mất/Hỏng/Vi phạm" style="startArrow=none;endArrow=block;exitX=1;exitY=0.66;entryX=0;entryY=0;rounded=0;entryDx=0;entryDy=0;" edge="1" parent="1" source="-Xd9OIVtBkkgdigE_KGQ-2" target="N-EmkDtuApi2RjCXlueM-14">
          <mxGeometry relative="1" as="geometry">
            <mxPoint x="1691.704081632653" y="551" as="targetPoint" />
          </mxGeometry>
        </mxCell>
        <mxCell id="-Xd9OIVtBkkgdigE_KGQ-19" value="Hồ sơ/điều kiện mượn" style="startArrow=none;endArrow=block;exitX=0.75;exitY=1;entryX=0;entryY=0;rounded=0;exitDx=0;exitDy=0;entryDx=0;entryDy=0;" edge="1" parent="1" source="ajGllMVICAQ2R9X1l5JS-1" target="N-EmkDtuApi2RjCXlueM-13">
          <mxGeometry relative="1" as="geometry">
            <mxPoint x="470" y="137" as="sourcePoint" />
            <mxPoint x="554.6759999999999" y="248.99799999999993" as="targetPoint" />
          </mxGeometry>
        </mxCell>
        <mxCell id="-Xd9OIVtBkkgdigE_KGQ-20" value="TT bản sách, trạng thái" style="startArrow=none;endArrow=block;exitX=0.5;exitY=0;entryX=0.5;entryY=1;rounded=0;entryDx=0;entryDy=0;exitDx=0;exitDy=0;" edge="1" parent="1" source="ajGllMVICAQ2R9X1l5JS-2" target="N-EmkDtuApi2RjCXlueM-13">
          <mxGeometry relative="1" as="geometry">
            <mxPoint x="645.1200000000001" y="696" as="sourcePoint" />
            <mxPoint x="651.4411764705883" y="300.9999999999999" as="targetPoint" />
          </mxGeometry>
        </mxCell>
        <mxCell id="-Xd9OIVtBkkgdigE_KGQ-21" value="Ghi phiếu mượn mới" style="startArrow=none;endArrow=block;exitX=1;exitY=0.5;entryX=0.5;entryY=0;rounded=0;exitDx=0;exitDy=0;entryDx=0;entryDy=0;" edge="1" parent="1" source="N-EmkDtuApi2RjCXlueM-13" target="N-EmkDtuApi2RjCXlueM-16">
          <mxGeometry x="-0.2803" y="22" relative="1" as="geometry">
            <mxPoint x="678" y="281.02" as="sourcePoint" />
            <mxPoint x="1313" y="347" as="targetPoint" />
            <mxPoint as="offset" />
          </mxGeometry>
        </mxCell>
        <mxCell id="-Xd9OIVtBkkgdigE_KGQ-22" value="Cập nhật trạng thái = Đang mượn" style="startArrow=none;endArrow=block;exitX=0.04;exitY=1.01;entryX=0.076;entryY=0.005;rounded=0;entryDx=0;entryDy=0;entryPerimeter=0;" edge="1" parent="1" target="ajGllMVICAQ2R9X1l5JS-2">
          <mxGeometry x="0.1061" y="-43" relative="1" as="geometry">
            <Array as="points">
              <mxPoint x="470" y="507" />
            </Array>
            <mxPoint x="555.3235294117644" y="300.9999999999999" as="sourcePoint" />
            <mxPoint x="532.76" y="696" as="targetPoint" />
            <mxPoint as="offset" />
          </mxGeometry>
        </mxCell>
        <mxCell id="-Xd9OIVtBkkgdigE_KGQ-23" value="Phiếu mượn hiện hành" style="startArrow=none;endArrow=block;exitX=0.107;exitY=1.033;entryX=0.572;entryY=0.033;rounded=0;entryDx=0;entryDy=0;exitDx=0;exitDy=0;entryPerimeter=0;exitPerimeter=0;" edge="1" parent="1" source="N-EmkDtuApi2RjCXlueM-16" target="ajGllMVICAQ2R9X1l5JS-6">
          <mxGeometry x="-0.0913" y="-14" relative="1" as="geometry">
            <Array as="points">
              <mxPoint x="1190" y="467" />
            </Array>
            <mxPoint x="1206" y="431.28" as="sourcePoint" />
            <mxPoint x="1154.5120000000002" y="551.4860000000001" as="targetPoint" />
            <mxPoint x="3" y="-5" as="offset" />
          </mxGeometry>
        </mxCell>
        <mxCell id="-Xd9OIVtBkkgdigE_KGQ-24" value="TT bản sách" style="startArrow=none;endArrow=block;exitX=1.025;exitY=0.382;entryX=0;entryY=0.78;rounded=0;exitDx=0;exitDy=0;exitPerimeter=0;" edge="1" parent="1" source="ajGllMVICAQ2R9X1l5JS-2">
          <mxGeometry relative="1" as="geometry">
            <mxPoint x="696" y="708.8999999999999" as="sourcePoint" />
            <mxPoint x="1118" y="593.1200000000001" as="targetPoint" />
          </mxGeometry>
        </mxCell>
        <mxCell id="-Xd9OIVtBkkgdigE_KGQ-25" value="Cập nhật trạng thái = Sẵn sàng" style="startArrow=none;endArrow=block;exitX=0;exitY=0.5;entryX=0.75;entryY=0;rounded=0;entryDx=0;entryDy=0;exitDx=0;exitDy=0;" edge="1" parent="1" source="ajGllMVICAQ2R9X1l5JS-6" target="ajGllMVICAQ2R9X1l5JS-2">
          <mxGeometry x="0.3006" y="-32" relative="1" as="geometry">
            <Array as="points">
              <mxPoint x="830" y="597" />
            </Array>
            <mxPoint x="1118" y="585.0200000000002" as="sourcePoint" />
            <mxPoint x="590.0000000000002" y="696" as="targetPoint" />
            <mxPoint as="offset" />
          </mxGeometry>
        </mxCell>
        <mxCell id="-Xd9OIVtBkkgdigE_KGQ-26" value="Ghi phí quá hạn (nếu có)" style="startArrow=none;endArrow=block;exitX=0.5;exitY=1;entryX=0.428;entryY=0.067;rounded=0;entryDx=0;entryDy=0;entryPerimeter=0;exitDx=0;exitDy=0;" edge="1" parent="1" source="ajGllMVICAQ2R9X1l5JS-6" target="ajGllMVICAQ2R9X1l5JS-5">
          <mxGeometry x="0.0744" y="5" relative="1" as="geometry">
            <mxPoint x="1169.1840000000002" y="607.106" as="sourcePoint" />
            <mxPoint x="1089.2799999999997" y="696.5" as="targetPoint" />
            <mxPoint as="offset" />
          </mxGeometry>
        </mxCell>
        <mxCell id="-Xd9OIVtBkkgdigE_KGQ-27" value="Cập nhật phiếu = Hoàn tất" style="startArrow=none;endArrow=block;exitX=1;exitY=0.5;entryX=0.5;entryY=1;rounded=0;entryDx=0;entryDy=0;exitDx=0;exitDy=0;" edge="1" parent="1">
          <mxGeometry x="-0.211" y="-5" relative="1" as="geometry">
            <mxPoint x="1230" y="578" as="sourcePoint" />
            <mxPoint x="1320" y="417" as="targetPoint" />
            <mxPoint as="offset" />
          </mxGeometry>
        </mxCell>
        <mxCell id="-Xd9OIVtBkkgdigE_KGQ-28" value="TT phiếu liên quan" style="startArrow=none;endArrow=block;exitX=0.75;exitY=1;rounded=0;exitDx=0;exitDy=0;entryX=0;entryY=0.5;entryDx=0;entryDy=0;" edge="1" parent="1" source="N-EmkDtuApi2RjCXlueM-16" target="N-EmkDtuApi2RjCXlueM-14">
          <mxGeometry relative="1" as="geometry">
            <mxPoint x="1342.2000000000003" y="415.67999999999995" as="sourcePoint" />
            <mxPoint x="1726.5" y="551" as="targetPoint" />
          </mxGeometry>
        </mxCell>
        <mxCell id="-Xd9OIVtBkkgdigE_KGQ-29" value="Ghi công nợ/bồi thường" style="startArrow=none;endArrow=block;exitX=0;exitY=1;entryX=1;entryY=0.25;rounded=0;exitDx=0;exitDy=0;entryDx=0;entryDy=0;" edge="1" parent="1" source="N-EmkDtuApi2RjCXlueM-14" target="ajGllMVICAQ2R9X1l5JS-5">
          <mxGeometry relative="1" as="geometry">
            <mxPoint x="1649" y="598.52" as="sourcePoint" />
            <mxPoint x="1254.1799999999998" y="696.5" as="targetPoint" />
          </mxGeometry>
        </mxCell>
        <mxCell id="-Xd9OIVtBkkgdigE_KGQ-30" value="Trạng thái bản sách" style="startArrow=none;endArrow=block;exitX=0.589;exitY=1.027;entryX=0;entryY=0.5;rounded=0;exitDx=0;exitDy=0;entryDx=0;entryDy=0;exitPerimeter=0;" edge="1" parent="1" source="ajGllMVICAQ2R9X1l5JS-2" target="ajGllMVICAQ2R9X1l5JS-7">
          <mxGeometry relative="1" as="geometry">
            <mxPoint x="696" y="755.3399999999999" as="sourcePoint" />
            <mxPoint x="1110.2000000000003" y="855" as="targetPoint" />
          </mxGeometry>
        </mxCell>
        <mxCell id="-Xd9OIVtBkkgdigE_KGQ-31" value="Ghi hàng đợi (FIFO)" style="curved=1;startArrow=none;endArrow=block;exitX=0.5;exitY=1;entryX=0.5;entryY=0;rounded=0;edgeStyle=orthogonalEdgeStyle;exitDx=0;exitDy=0;entryDx=0;entryDy=0;" edge="1" parent="1" source="ajGllMVICAQ2R9X1l5JS-7" target="ajGllMVICAQ2R9X1l5JS-8">
          <mxGeometry relative="1" as="geometry">
            <Array as="points" />
            <mxPoint x="1123" y="909" as="sourcePoint" />
            <mxPoint x="1123" y="982" as="targetPoint" />
          </mxGeometry>
        </mxCell>
        <mxCell id="-Xd9OIVtBkkgdigE_KGQ-32" value="Hạn trả &amp; trạng thái mượn" style="startArrow=none;endArrow=block;exitX=0.6;exitY=1.006;entryX=0.898;entryY=0.237;rounded=0;exitDx=0;exitDy=0;exitPerimeter=0;entryDx=0;entryDy=0;entryPerimeter=0;" edge="1" parent="1" source="N-EmkDtuApi2RjCXlueM-16" target="ajGllMVICAQ2R9X1l5JS-9">
          <mxGeometry relative="1" as="geometry">
            <Array as="points">
              <mxPoint x="1350" y="797" />
            </Array>
            <mxPoint x="1206" y="400.31999999999994" as="sourcePoint" />
            <mxPoint x="1222.792" y="1135.65" as="targetPoint" />
          </mxGeometry>
        </mxCell>
        <mxCell id="-Xd9OIVtBkkgdigE_KGQ-33" value="Danh sách đến lượt giữ chỗ" style="curved=1;startArrow=none;endArrow=block;exitX=0.5;exitY=1;entryX=0.5;entryY=0;rounded=0;edgeStyle=orthogonalEdgeStyle;exitDx=0;exitDy=0;entryDx=0;entryDy=0;" edge="1" parent="1" source="ajGllMVICAQ2R9X1l5JS-8" target="ajGllMVICAQ2R9X1l5JS-9">
          <mxGeometry relative="1" as="geometry">
            <Array as="points" />
            <mxPoint x="1123" y="1064" as="sourcePoint" />
            <mxPoint x="1123" y="1137" as="targetPoint" />
          </mxGeometry>
        </mxCell>
        <mxCell id="-Xd9OIVtBkkgdigE_KGQ-34" value="Ghi log gửi" style="startArrow=none;endArrow=block;exitX=0.196;exitY=0.932;entryX=0.5;entryY=0;rounded=0;exitDx=0;exitDy=0;exitPerimeter=0;entryDx=0;entryDy=0;" edge="1" parent="1" source="ajGllMVICAQ2R9X1l5JS-9" target="ajGllMVICAQ2R9X1l5JS-10">
          <mxGeometry relative="1" as="geometry">
            <mxPoint x="1060.3600000000006" y="1191.0000000000002" as="sourcePoint" />
            <mxPoint x="978.4999999999998" y="1264" as="targetPoint" />
          </mxGeometry>
        </mxCell>
        <mxCell id="-Xd9OIVtBkkgdigE_KGQ-35" value="Thông báo" style="startArrow=none;endArrow=block;exitX=0.761;exitY=0.984;entryX=0.5;entryY=0;rounded=0;exitDx=0;exitDy=0;exitPerimeter=0;entryDx=0;entryDy=0;" edge="1" parent="1" source="ajGllMVICAQ2R9X1l5JS-9" target="-Xd9OIVtBkkgdigE_KGQ-3">
          <mxGeometry relative="1" as="geometry">
            <mxPoint x="1170.5199999999995" y="1191.0000000000002" as="sourcePoint" />
          </mxGeometry>
        </mxCell>
        <mxCell id="-Xd9OIVtBkkgdigE_KGQ-36" value="Phiếu mượn" style="startArrow=none;endArrow=block;exitX=1;exitY=0.4;entryX=0;entryY=0.88;rounded=0;exitDx=0;exitDy=0;exitPerimeter=0;" edge="1" parent="1" source="N-EmkDtuApi2RjCXlueM-13" target="-Xd9OIVtBkkgdigE_KGQ-2">
          <mxGeometry x="-0.1313" y="-21" relative="1" as="geometry">
            <mxPoint x="678" y="260.5" as="sourcePoint" />
            <mxPoint as="offset" />
          </mxGeometry>
        </mxCell>
        <mxCell id="-Xd9OIVtBkkgdigE_KGQ-37" value="Phiếu trả" style="startArrow=none;endArrow=block;exitX=0.25;exitY=0.04;entryX=0.75;entryY=1;rounded=0;entryDx=0;entryDy=0;exitDx=0;exitDy=0;exitPerimeter=0;" edge="1" parent="1" source="ajGllMVICAQ2R9X1l5JS-6" target="-Xd9OIVtBkkgdigE_KGQ-2">
          <mxGeometry relative="1" as="geometry">
            <mxPoint x="1230" y="565.8775510204082" as="sourcePoint" />
          </mxGeometry>
        </mxCell>
        <mxCell id="-Xd9OIVtBkkgdigE_KGQ-38" value="Biên bản xử lý" style="startArrow=none;endArrow=block;exitX=0.5;exitY=0;entryX=1;entryY=0.25;rounded=0;entryDx=0;entryDy=0;exitDx=0;exitDy=0;" edge="1" parent="1" source="N-EmkDtuApi2RjCXlueM-14" target="-Xd9OIVtBkkgdigE_KGQ-2">
          <mxGeometry relative="1" as="geometry">
            <Array as="points">
              <mxPoint x="1490" y="297" />
            </Array>
            <mxPoint x="1761.295918367347" y="551" as="sourcePoint" />
          </mxGeometry>
        </mxCell>
        <mxCell id="-Xd9OIVtBkkgdigE_KGQ-39" value="Nhắc sắp/quá hạn/giữ chỗ" style="startArrow=none;endArrow=block;exitX=1;exitY=0.5;entryX=0.632;entryY=1.019;rounded=0;exitDx=0;exitDy=0;entryDx=0;entryDy=0;entryPerimeter=0;" edge="1" parent="1" source="ajGllMVICAQ2R9X1l5JS-9" target="-Xd9OIVtBkkgdigE_KGQ-1">
          <mxGeometry relative="1" as="geometry">
            <Array as="points">
              <mxPoint x="1510" y="1017" />
            </Array>
            <mxPoint x="1231.0000000000005" y="1154.28" as="sourcePoint" />
          </mxGeometry>
        </mxCell>
        <mxCell id="-Xd9OIVtBkkgdigE_KGQ-40" value="Thông tin cuốn đã trả (kích hoạt giữ chỗ)" style="startArrow=none;endArrow=block;exitX=0.254;exitY=0.937;entryX=0.312;entryY=0.045;rounded=0;exitDx=0;exitDy=0;exitPerimeter=0;entryDx=0;entryDy=0;entryPerimeter=0;" edge="1" parent="1" source="ajGllMVICAQ2R9X1l5JS-6" target="ajGllMVICAQ2R9X1l5JS-7">
          <mxGeometry x="0.119" y="-67" relative="1" as="geometry">
            <Array as="points">
              <mxPoint x="1050" y="737" />
            </Array>
            <mxPoint x="1138.7199999999998" y="604.46" as="sourcePoint" />
            <mxPoint x="1116.1200000000003" y="857.538" as="targetPoint" />
            <mxPoint x="2" y="-55" as="offset" />
          </mxGeometry>
        </mxCell>
        <mxCell id="N-EmkDtuApi2RjCXlueM-13" value="Mượn sách" style="ellipse;whiteSpace=wrap;html=1;" vertex="1" parent="1">
          <mxGeometry x="540" y="257" width="120" height="50" as="geometry" />
        </mxCell>
        <mxCell id="N-EmkDtuApi2RjCXlueM-14" value="Ghi nhận phạt" style="ellipse;whiteSpace=wrap;html=1;" vertex="1" parent="1">
          <mxGeometry x="1650" y="555" width="120" height="50" as="geometry" />
        </mxCell>
        <mxCell id="N-EmkDtuApi2RjCXlueM-16" value="Dữ liệu phiếu mượn/trả" style="shape=partialRectangle;whiteSpace=wrap;html=1;left=0;right=0;fillColor=none;shadow=0;fillStyle=auto;strokeColor=default;align=center;verticalAlign=middle;fontFamily=Helvetica;fontSize=12;fontColor=default;" vertex="1" parent="1">
          <mxGeometry x="1260" y="357" width="120" height="60" as="geometry" />
        </mxCell>
        <mxCell id="ajGllMVICAQ2R9X1l5JS-1" value="Dữ liệu độc giả" style="shape=partialRectangle;whiteSpace=wrap;html=1;left=0;right=0;fillColor=none;shadow=0;fillStyle=auto;strokeColor=default;align=center;verticalAlign=middle;fontFamily=Helvetica;fontSize=12;fontColor=default;" vertex="1" parent="1">
          <mxGeometry x="330" y="90" width="120" height="60" as="geometry" />
        </mxCell>
        <mxCell id="ajGllMVICAQ2R9X1l5JS-2" value="Dữ liệu sách &amp;amp; bản sách" style="shape=partialRectangle;whiteSpace=wrap;html=1;left=0;right=0;fillColor=none;shadow=0;fillStyle=auto;strokeColor=default;align=center;verticalAlign=middle;fontFamily=Helvetica;fontSize=12;fontColor=default;" vertex="1" parent="1">
          <mxGeometry x="520" y="712" width="120" height="60" as="geometry" />
        </mxCell>
        <mxCell id="ajGllMVICAQ2R9X1l5JS-5" value="Dữ liệu công nợ/phạt" style="shape=partialRectangle;whiteSpace=wrap;html=1;left=0;right=0;fillColor=none;shadow=0;fillStyle=auto;strokeColor=default;align=center;verticalAlign=middle;fontFamily=Helvetica;fontSize=12;fontColor=default;" vertex="1" parent="1">
          <mxGeometry x="1110" y="697" width="120" height="60" as="geometry" />
        </mxCell>
        <mxCell id="ajGllMVICAQ2R9X1l5JS-6" value="&lt;span style=&quot;text-wrap-mode: nowrap;&quot;&gt;Trả sách&lt;/span&gt;" style="ellipse;whiteSpace=wrap;html=1;" vertex="1" parent="1">
          <mxGeometry x="1110" y="555" width="120" height="50" as="geometry" />
        </mxCell>
        <mxCell id="ajGllMVICAQ2R9X1l5JS-7" value="&lt;span style=&quot;text-wrap-mode: nowrap;&quot;&gt;Đặt trước sách&lt;/span&gt;" style="ellipse;whiteSpace=wrap;html=1;" vertex="1" parent="1">
          <mxGeometry x="1063" y="857" width="120" height="50" as="geometry" />
        </mxCell>
        <mxCell id="ajGllMVICAQ2R9X1l5JS-8" value="Dữ liệu đặt trước" style="shape=partialRectangle;whiteSpace=wrap;html=1;left=0;right=0;fillColor=none;shadow=0;fillStyle=auto;strokeColor=default;align=center;verticalAlign=middle;fontFamily=Helvetica;fontSize=12;fontColor=default;" vertex="1" parent="1">
          <mxGeometry x="1063" y="987" width="120" height="60" as="geometry" />
        </mxCell>
        <mxCell id="ajGllMVICAQ2R9X1l5JS-9" value="&lt;span style=&quot;text-wrap-mode: nowrap;&quot;&gt;Cảnh báo sắp/quá hạn&lt;/span&gt;" style="ellipse;whiteSpace=wrap;html=1;" vertex="1" parent="1">
          <mxGeometry x="1053" y="1137" width="140" height="50" as="geometry" />
        </mxCell>
        <mxCell id="ajGllMVICAQ2R9X1l5JS-10" value="Dữ liệu nhật ký thông báo" style="shape=partialRectangle;whiteSpace=wrap;html=1;left=0;right=0;fillColor=none;shadow=0;fillStyle=auto;strokeColor=default;align=center;verticalAlign=middle;fontFamily=Helvetica;fontSize=12;fontColor=default;" vertex="1" parent="1">
          <mxGeometry x="920" y="1286" width="120" height="60" as="geometry" />
        </mxCell>
      </root>
    </mxGraphModel>
  </diagram>
  <diagram id="KXrvLd2Br2GabyEOELHs" name="Page-4">
    <mxGraphModel grid="1" page="1" gridSize="10" guides="1" tooltips="1" connect="1" arrows="1" fold="1" pageScale="1" pageWidth="1169" pageHeight="827" math="0" shadow="0">
      <root>
        <mxCell id="0" />
        <mxCell id="1" parent="0" />
        <mxCell id="tn8QCB50awS_vUThds4T-10" value="Quản lý" style="whiteSpace=wrap;strokeWidth=1;" vertex="1" parent="1">
          <mxGeometry x="320" y="450" width="115" height="54" as="geometry" />
        </mxCell>
        <mxCell id="tn8QCB50awS_vUThds4T-20" value="Tham số: kỳ, thể loại" style="startArrow=none;endArrow=block;exitX=0.77;exitY=-0.01;rounded=0;entryX=0;entryY=0.5;entryDx=0;entryDy=0;" edge="1" parent="1" source="tn8QCB50awS_vUThds4T-10" target="RBhGX1zrsbTgYkm6XqV0-1">
          <mxGeometry x="0.2086" y="23" relative="1" as="geometry">
            <Array as="points">
              <mxPoint x="420" y="220" />
            </Array>
            <mxPoint x="700" y="159" as="targetPoint" />
            <mxPoint as="offset" />
          </mxGeometry>
        </mxCell>
        <mxCell id="tn8QCB50awS_vUThds4T-21" value="Dữ liệu tồn/nhập/giảm theo thể loại" style="startArrow=none;endArrow=block;exitX=1;exitY=0.25;entryX=0.5;entryY=0;rounded=0;exitDx=0;exitDy=0;entryDx=0;entryDy=0;" edge="1" parent="1" source="lVO7NTbIw8-0h5PLnLyW-1" target="RBhGX1zrsbTgYkm6XqV0-1">
          <mxGeometry relative="1" as="geometry">
            <Array as="points">
              <mxPoint x="500" y="120" />
            </Array>
            <mxPoint x="233" y="56.120000000000005" as="sourcePoint" />
            <mxPoint x="765.7142857142856" y="140" as="targetPoint" />
          </mxGeometry>
        </mxCell>
        <mxCell id="tn8QCB50awS_vUThds4T-22" value="Mẫu xuất báo cáo" style="startArrow=none;endArrow=block;exitX=0.678;exitY=-0.05;entryX=0.5;entryY=1;rounded=0;exitDx=0;exitDy=0;exitPerimeter=0;entryDx=0;entryDy=0;" edge="1" parent="1" source="lVO7NTbIw8-0h5PLnLyW-3" target="RBhGX1zrsbTgYkm6XqV0-1">
          <mxGeometry x="-0.5901" y="-48" relative="1" as="geometry">
            <Array as="points">
              <mxPoint x="170" y="320" />
            </Array>
            <mxPoint x="221" y="558.8400000000001" as="sourcePoint" />
            <mxPoint x="778.9215686274513" y="217.9999999999999" as="targetPoint" />
            <mxPoint as="offset" />
          </mxGeometry>
        </mxCell>
        <mxCell id="tn8QCB50awS_vUThds4T-23" value="PDF/Excel/CSV" style="startArrow=none;endArrow=block;exitX=1;exitY=1;entryX=1;entryY=0.33;rounded=0;exitDx=0;exitDy=0;" edge="1" parent="1" source="RBhGX1zrsbTgYkm6XqV0-1" target="tn8QCB50awS_vUThds4T-10">
          <mxGeometry x="-0.4799" y="36" relative="1" as="geometry">
            <Array as="points">
              <mxPoint x="960" y="270" />
            </Array>
            <mxPoint x="706.7647058823532" y="217.9999999999999" as="sourcePoint" />
            <mxPoint x="16" y="-13" as="offset" />
          </mxGeometry>
        </mxCell>
        <mxCell id="tn8QCB50awS_vUThds4T-24" value="Tham số: kỳ, phạm vi" style="startArrow=none;endArrow=block;exitX=0.83;exitY=-0.01;entryX=0.5;entryY=0;rounded=0;entryDx=0;entryDy=0;" edge="1" parent="1" source="tn8QCB50awS_vUThds4T-10" target="RBhGX1zrsbTgYkm6XqV0-2">
          <mxGeometry x="-0.3615" y="17" relative="1" as="geometry">
            <Array as="points">
              <mxPoint x="500" y="370" />
            </Array>
            <mxPoint x="866.8367346938776" y="414" as="targetPoint" />
            <mxPoint as="offset" />
          </mxGeometry>
        </mxCell>
        <mxCell id="tn8QCB50awS_vUThds4T-25" value="Dữ liệu mượn - trả" style="startArrow=none;endArrow=block;exitX=1;exitY=0.25;entryX=0;entryY=1;rounded=0;exitDx=0;exitDy=0;entryDx=0;entryDy=0;" edge="1" parent="1" source="lVO7NTbIw8-0h5PLnLyW-4" target="RBhGX1zrsbTgYkm6XqV0-2">
          <mxGeometry x="-0.8094" y="28" relative="1" as="geometry">
            <Array as="points">
              <mxPoint x="510" y="610" />
            </Array>
            <mxPoint x="234" y="765.76" as="sourcePoint" />
            <mxPoint x="845.3921568627452" y="492" as="targetPoint" />
            <mxPoint as="offset" />
          </mxGeometry>
        </mxCell>
        <mxCell id="tn8QCB50awS_vUThds4T-26" value="Dữ liệu quá hạn/phí" style="startArrow=none;endArrow=block;exitX=1.018;exitY=0.408;rounded=0;exitDx=0;exitDy=0;exitPerimeter=0;entryX=0.5;entryY=1;entryDx=0;entryDy=0;" edge="1" parent="1" source="lVO7NTbIw8-0h5PLnLyW-6" target="RBhGX1zrsbTgYkm6XqV0-2">
          <mxGeometry x="0.2405" y="-28" relative="1" as="geometry">
            <Array as="points">
              <mxPoint x="660" y="720" />
            </Array>
            <mxPoint x="224" y="910.9499999999998" as="sourcePoint" />
            <mxPoint x="868" y="492" as="targetPoint" />
            <mxPoint as="offset" />
          </mxGeometry>
        </mxCell>
        <mxCell id="tn8QCB50awS_vUThds4T-27" value="Mẫu xuất báo cáo" style="startArrow=none;endArrow=block;entryX=0;entryY=0.5;rounded=0;exitX=1;exitY=0.25;exitDx=0;exitDy=0;entryDx=0;entryDy=0;" edge="1" parent="1" source="lVO7NTbIw8-0h5PLnLyW-3" target="RBhGX1zrsbTgYkm6XqV0-2">
          <mxGeometry x="-0.5757" y="21" relative="1" as="geometry">
            <Array as="points">
              <mxPoint x="510" y="580" />
            </Array>
            <mxPoint x="190" y="576" as="sourcePoint" />
            <mxPoint x="780" y="453.78" as="targetPoint" />
            <mxPoint as="offset" />
          </mxGeometry>
        </mxCell>
        <mxCell id="tn8QCB50awS_vUThds4T-28" value="PDF/Excel/CSV" style="startArrow=none;endArrow=block;exitX=0.042;exitY=0.32;entryX=1;entryY=0.52;rounded=0;exitDx=0;exitDy=0;exitPerimeter=0;" edge="1" parent="1" source="RBhGX1zrsbTgYkm6XqV0-2" target="tn8QCB50awS_vUThds4T-10">
          <mxGeometry relative="1" as="geometry">
            <mxPoint x="838.6734693877552" y="414" as="sourcePoint" />
          </mxGeometry>
        </mxCell>
        <mxCell id="tn8QCB50awS_vUThds4T-29" value="Tham số: kỳ, nhóm độc giả" style="startArrow=none;endArrow=block;exitX=0.75;exitY=1;entryX=0.371;entryY=0;rounded=0;exitDx=0;exitDy=0;entryDx=0;entryDy=0;entryPerimeter=0;" edge="1" parent="1" source="tn8QCB50awS_vUThds4T-10" target="RBhGX1zrsbTgYkm6XqV0-4">
          <mxGeometry x="-0.7483" y="-24" relative="1" as="geometry">
            <Array as="points">
              <mxPoint x="450" y="710" />
            </Array>
            <mxPoint x="818.5714285714289" y="973" as="targetPoint" />
            <mxPoint as="offset" />
          </mxGeometry>
        </mxCell>
        <mxCell id="tn8QCB50awS_vUThds4T-30" value="Độc giả mới/đang hoạt động" style="startArrow=none;endArrow=block;exitX=1;exitY=0.5;entryX=0.6;entryY=1.06;rounded=0;exitDx=0;exitDy=0;entryDx=0;entryDy=0;entryPerimeter=0;" edge="1" parent="1" source="lVO7NTbIw8-0h5PLnLyW-8" target="RBhGX1zrsbTgYkm6XqV0-4">
          <mxGeometry relative="1" as="geometry">
            <Array as="points">
              <mxPoint x="520" y="1120" />
            </Array>
            <mxPoint x="201" y="1052.4" as="sourcePoint" />
            <mxPoint x="794.4117647058824" y="1051" as="targetPoint" />
          </mxGeometry>
        </mxCell>
        <mxCell id="tn8QCB50awS_vUThds4T-31" value="Phát sinh mượn theo kỳ" style="startArrow=none;endArrow=block;entryX=0;entryY=0.5;rounded=0;exitX=1;exitY=0.5;exitDx=0;exitDy=0;entryDx=0;entryDy=0;" edge="1" parent="1" source="lVO7NTbIw8-0h5PLnLyW-4" target="RBhGX1zrsbTgYkm6XqV0-4">
          <mxGeometry x="0.5412" y="16" relative="1" as="geometry">
            <Array as="points">
              <mxPoint x="440" y="920" />
            </Array>
            <mxPoint x="234" y="797" as="sourcePoint" />
            <mxPoint x="720" y="1012.78" as="targetPoint" />
            <mxPoint as="offset" />
          </mxGeometry>
        </mxCell>
        <mxCell id="tn8QCB50awS_vUThds4T-32" value="Danh sách bị phạt" style="startArrow=none;endArrow=block;exitX=1.025;exitY=0.617;entryX=0;entryY=1;rounded=0;exitDx=0;exitDy=0;exitPerimeter=0;entryDx=0;entryDy=0;" edge="1" parent="1" source="lVO7NTbIw8-0h5PLnLyW-6" target="RBhGX1zrsbTgYkm6XqV0-4">
          <mxGeometry relative="1" as="geometry">
            <Array as="points">
              <mxPoint x="450" y="1050" />
            </Array>
            <mxPoint x="224" y="929.6499999999999" as="sourcePoint" />
            <mxPoint x="720" y="1031.5" as="targetPoint" />
          </mxGeometry>
        </mxCell>
        <mxCell id="tn8QCB50awS_vUThds4T-33" value="Mẫu xuất báo cáo" style="startArrow=none;endArrow=block;exitX=1.011;exitY=0.603;entryX=0;entryY=0;rounded=0;exitDx=0;exitDy=0;exitPerimeter=0;entryDx=0;entryDy=0;" edge="1" parent="1" source="lVO7NTbIw8-0h5PLnLyW-3" target="RBhGX1zrsbTgYkm6XqV0-4">
          <mxGeometry x="-0.4383" y="-14" relative="1" as="geometry">
            <Array as="points">
              <mxPoint x="390" y="750" />
            </Array>
            <mxPoint x="221" y="602.52" as="sourcePoint" />
            <mxPoint x="785.7142857142858" y="973" as="targetPoint" />
            <mxPoint as="offset" />
          </mxGeometry>
        </mxCell>
        <mxCell id="tn8QCB50awS_vUThds4T-34" value="PDF/Excel/CSV" style="startArrow=none;endArrow=block;exitX=0.771;exitY=0.08;entryX=1;entryY=0.72;rounded=0;exitDx=0;exitDy=0;exitPerimeter=0;" edge="1" parent="1" source="RBhGX1zrsbTgYkm6XqV0-4" target="tn8QCB50awS_vUThds4T-10">
          <mxGeometry x="-0.7624" y="-20" relative="1" as="geometry">
            <Array as="points">
              <mxPoint x="520" y="700" />
            </Array>
            <mxPoint x="861.2199999999998" y="972.844" as="sourcePoint" />
            <mxPoint as="offset" />
          </mxGeometry>
        </mxCell>
        <mxCell id="tn8QCB50awS_vUThds4T-35" value="Chọn kỳ báo cáo" style="startArrow=none;endArrow=block;exitX=1;exitY=0.13;entryX=0.238;entryY=0.06;rounded=0;entryDx=0;entryDy=0;entryPerimeter=0;" edge="1" parent="1" source="tn8QCB50awS_vUThds4T-10" target="RBhGX1zrsbTgYkm6XqV0-3">
          <mxGeometry x="0.1601" y="26" relative="1" as="geometry">
            <Array as="points">
              <mxPoint x="530" y="500" />
            </Array>
            <mxPoint x="819.1836734693875" y="640" as="targetPoint" />
            <mxPoint as="offset" />
          </mxGeometry>
        </mxCell>
        <mxCell id="tn8QCB50awS_vUThds4T-36" value="Số liệu độc giả" style="startArrow=none;endArrow=block;exitX=0.5;exitY=0;entryX=0.5;entryY=1;rounded=0;exitDx=0;exitDy=0;entryDx=0;entryDy=0;" edge="1" parent="1" source="lVO7NTbIw8-0h5PLnLyW-8" target="RBhGX1zrsbTgYkm6XqV0-3">
          <mxGeometry x="-0.3843" y="12" relative="1" as="geometry">
            <Array as="points">
              <mxPoint x="520" y="970" />
            </Array>
            <mxPoint x="201" y="1074.0000000000002" as="sourcePoint" />
            <mxPoint x="822.4509803921569" y="718" as="targetPoint" />
            <mxPoint as="offset" />
          </mxGeometry>
        </mxCell>
        <mxCell id="tn8QCB50awS_vUThds4T-37" value="Số liệu danh mục &amp; tồn" style="startArrow=none;endArrow=block;exitX=1;exitY=0.75;entryX=0.419;entryY=-0.02;rounded=0;exitDx=0;exitDy=0;entryDx=0;entryDy=0;entryPerimeter=0;" edge="1" parent="1" source="lVO7NTbIw8-0h5PLnLyW-1" target="RBhGX1zrsbTgYkm6XqV0-3">
          <mxGeometry x="-0.1703" y="12" relative="1" as="geometry">
            <Array as="points">
              <mxPoint x="720" y="330" />
            </Array>
            <mxPoint x="233" y="85.36000000000001" as="sourcePoint" />
            <mxPoint x="828.5714285714289" y="640" as="targetPoint" />
            <mxPoint as="offset" />
          </mxGeometry>
        </mxCell>
        <mxCell id="tn8QCB50awS_vUThds4T-38" value="Số liệu mượn - trả" style="startArrow=none;endArrow=block;exitX=1.01;exitY=0.867;entryX=0;entryY=1;rounded=0;exitDx=0;exitDy=0;exitPerimeter=0;entryDx=0;entryDy=0;" edge="1" parent="1" source="lVO7NTbIw8-0h5PLnLyW-4" target="RBhGX1zrsbTgYkm6XqV0-3">
          <mxGeometry x="-0.6687" y="8" relative="1" as="geometry">
            <Array as="points">
              <mxPoint x="520" y="800" />
            </Array>
            <mxPoint x="234" y="816.5000000000002" as="sourcePoint" />
            <mxPoint x="790.8823529411766" y="718" as="targetPoint" />
            <mxPoint as="offset" />
          </mxGeometry>
        </mxCell>
        <mxCell id="tn8QCB50awS_vUThds4T-39" value="Số liệu công nợ/vi phạm" style="startArrow=none;endArrow=block;exitX=1;exitY=0.75;entryX=0.405;entryY=0.98;rounded=0;exitDx=0;exitDy=0;entryDx=0;entryDy=0;entryPerimeter=0;" edge="1" parent="1" source="lVO7NTbIw8-0h5PLnLyW-6" target="RBhGX1zrsbTgYkm6XqV0-3">
          <mxGeometry x="-0.2778" relative="1" as="geometry">
            <Array as="points">
              <mxPoint x="580" y="860" />
            </Array>
            <mxPoint x="224" y="948.3499999999999" as="sourcePoint" />
            <mxPoint x="813.4313725490197" y="718" as="targetPoint" />
            <mxPoint as="offset" />
          </mxGeometry>
        </mxCell>
        <mxCell id="tn8QCB50awS_vUThds4T-40" value="Mẫu xuất báo cáo" style="startArrow=none;endArrow=block;exitX=0.586;exitY=1.047;entryX=0;entryY=0.5;rounded=0;exitDx=0;exitDy=0;exitPerimeter=0;entryDx=0;entryDy=0;" edge="1" parent="1" source="lVO7NTbIw8-0h5PLnLyW-3" target="RBhGX1zrsbTgYkm6XqV0-3">
          <mxGeometry x="0.448" y="13" relative="1" as="geometry">
            <Array as="points">
              <mxPoint x="250" y="660" />
            </Array>
            <mxPoint x="221" y="628.5600000000002" as="sourcePoint" />
            <mxPoint x="730" y="679.78" as="targetPoint" />
            <mxPoint as="offset" />
          </mxGeometry>
        </mxCell>
        <mxCell id="tn8QCB50awS_vUThds4T-41" value="PDF/Excel/CSV" style="startArrow=none;endArrow=block;exitX=0.067;exitY=0.24;entryX=0.439;entryY=0.988;rounded=0;entryDx=0;entryDy=0;entryPerimeter=0;exitDx=0;exitDy=0;exitPerimeter=0;" edge="1" parent="1" source="RBhGX1zrsbTgYkm6XqV0-3" target="tn8QCB50awS_vUThds4T-10">
          <mxGeometry x="0.6758" y="3" relative="1" as="geometry">
            <mxPoint x="800.4081632653065" y="640" as="sourcePoint" />
            <mxPoint as="offset" />
          </mxGeometry>
        </mxCell>
        <mxCell id="lVO7NTbIw8-0h5PLnLyW-1" value="Dữ liệu sách &amp;amp; bản sách" style="shape=partialRectangle;whiteSpace=wrap;html=1;left=0;right=0;fillColor=none;shadow=0;fillStyle=auto;strokeColor=default;align=center;verticalAlign=middle;fontFamily=Helvetica;fontSize=12;fontColor=default;" vertex="1" parent="1">
          <mxGeometry x="80" y="180" width="120" height="60" as="geometry" />
        </mxCell>
        <mxCell id="lVO7NTbIw8-0h5PLnLyW-3" value="Dữ liệu mẫu báo cáo" style="shape=partialRectangle;whiteSpace=wrap;html=1;left=0;right=0;fillColor=none;shadow=0;fillStyle=auto;strokeColor=default;align=center;verticalAlign=middle;fontFamily=Helvetica;fontSize=12;fontColor=default;" vertex="1" parent="1">
          <mxGeometry x="50" y="550" width="120" height="60" as="geometry" />
        </mxCell>
        <mxCell id="lVO7NTbIw8-0h5PLnLyW-4" value="Dữ liệu phiếu mượn/trả" style="shape=partialRectangle;whiteSpace=wrap;html=1;left=0;right=0;fillColor=none;shadow=0;fillStyle=auto;strokeColor=default;align=center;verticalAlign=middle;fontFamily=Helvetica;fontSize=12;fontColor=default;" vertex="1" parent="1">
          <mxGeometry x="50" y="760" width="120" height="60" as="geometry" />
        </mxCell>
        <mxCell id="lVO7NTbIw8-0h5PLnLyW-6" value="Dữ liệu công nợ/phạt" style="shape=partialRectangle;whiteSpace=wrap;html=1;left=0;right=0;fillColor=none;shadow=0;fillStyle=auto;strokeColor=default;align=center;verticalAlign=middle;fontFamily=Helvetica;fontSize=12;fontColor=default;" vertex="1" parent="1">
          <mxGeometry x="64" y="890" width="120" height="60" as="geometry" />
        </mxCell>
        <mxCell id="lVO7NTbIw8-0h5PLnLyW-8" value="Dữ liệu độc giả" style="shape=partialRectangle;whiteSpace=wrap;html=1;left=0;right=0;fillColor=none;shadow=0;fillStyle=auto;strokeColor=default;align=center;verticalAlign=middle;fontFamily=Helvetica;fontSize=12;fontColor=default;" vertex="1" parent="1">
          <mxGeometry x="64" y="1010" width="120" height="60" as="geometry" />
        </mxCell>
        <mxCell id="RBhGX1zrsbTgYkm6XqV0-1" value="&lt;span style=&quot;text-wrap-mode: nowrap;&quot;&gt;Báo cáo số lượng theo thể loại&lt;/span&gt;" style="ellipse;whiteSpace=wrap;html=1;" vertex="1" parent="1">
          <mxGeometry x="750" y="150" width="190" height="50" as="geometry" />
        </mxCell>
        <mxCell id="RBhGX1zrsbTgYkm6XqV0-2" value="&lt;span style=&quot;text-wrap-mode: nowrap;&quot;&gt;Báo cáo mượn - trả - quá hạn&lt;/span&gt;" style="ellipse;whiteSpace=wrap;html=1;" vertex="1" parent="1">
          <mxGeometry x="800" y="430" width="190" height="50" as="geometry" />
        </mxCell>
        <mxCell id="RBhGX1zrsbTgYkm6XqV0-3" value="&lt;span style=&quot;text-wrap-mode: nowrap;&quot;&gt;Báo cáo tổng hợp (tháng/quý/năm)&lt;/span&gt;" style="ellipse;whiteSpace=wrap;html=1;" vertex="1" parent="1">
          <mxGeometry x="1160" y="700" width="210" height="50" as="geometry" />
        </mxCell>
        <mxCell id="RBhGX1zrsbTgYkm6XqV0-4" value="&lt;span style=&quot;text-wrap-mode: nowrap;&quot;&gt;Báo cáo hoạt động độc giả&lt;/span&gt;" style="ellipse;whiteSpace=wrap;html=1;" vertex="1" parent="1">
          <mxGeometry x="1020" y="950" width="210" height="50" as="geometry" />
        </mxCell>
      </root>
    </mxGraphModel>
  </diagram>
</mxfile>
